<svg width="189" height="189" viewBox="0 0 189 189" fill="none" xmlns="http://www.w3.org/2000/svg">
<circle cx="95" cy="94" r="94" fill="#C4C4C4"/>
<path d="M94.4995 0.749512C42.7495 0.749512 0.749512 42.7495 0.749512 94.4995C0.749512 146.25 42.7495 188.25 94.4995 188.25C146.249 188.25 188.249 146.25 188.249 94.4995C188.249 42.7495 146.249 0.749512 94.4995 0.749512ZM94.4995 28.8745C110.062 28.8745 122.624 41.437 122.624 56.9995C122.624 72.562 110.062 85.1245 94.4995 85.1245C78.937 85.1245 66.3745 72.562 66.3745 56.9995C66.3745 41.437 78.937 28.8745 94.4995 28.8745ZM94.4995 162C71.062 162 50.3433 150 38.2495 131.812C38.5308 113.156 75.7495 102.937 94.4995 102.937C113.156 102.937 150.468 113.156 150.749 131.812C138.656 150 117.937 162 94.4995 162Z" fill="#DDDDDD"/>
</svg>
