<svg width="32" height="32" viewBox="0 0 32 32" fill="none" xmlns="http://www.w3.org/2000/svg">
<path d="M15.1794 20.3663C16.6607 20.3609 19.8995 20.3489 19.8622 18.2889C19.8262 16.1822 16.7154 16.3089 15.1994 16.3716C15.03 16.3782 14.8793 16.3849 14.7567 16.3862L14.826 20.3689C14.926 20.3663 15.046 20.3663 15.1794 20.3663Z" fill="black"/>
<path d="M15.022 14.5622C16.2581 14.5609 18.9555 14.5582 18.9235 12.6848C18.8888 10.7688 16.2981 10.8821 15.0327 10.9381C14.89 10.9448 14.766 10.9501 14.662 10.9515L14.7247 14.5635L15.022 14.5622Z" fill="black"/>
<path fill-rule="evenodd" clip-rule="evenodd" d="M12.1273 31.5211C20.7008 33.6584 29.3838 28.441 31.5212 19.8703C33.6586 11.2982 28.4397 2.61537 19.8662 0.479347C11.2979 -1.65935 2.61499 3.55939 0.478932 12.1328C-1.65846 20.7036 3.55902 29.3864 12.1286 31.5224L12.1273 31.5211ZM17.8368 8.82745C20.1755 8.99279 22.0369 9.67813 22.2809 11.8168C22.4622 13.3822 21.8222 14.3355 20.7835 14.8875C22.5169 15.2715 23.6169 16.2782 23.4436 18.5822C23.2289 21.4423 21.1129 22.2463 18.0754 22.473L18.1261 25.473L16.3181 25.5063L16.2661 22.5463C15.798 22.5543 15.318 22.5596 14.8207 22.557L14.874 25.5303L13.066 25.5623L13.0126 22.557L12.5019 22.561C12.2433 22.5623 11.9819 22.5636 11.7206 22.569L9.36586 22.609L9.6872 20.4436C9.6872 20.4436 11.0259 20.4409 11.0019 20.4209C11.5139 20.4103 11.6433 20.0409 11.6713 19.8089L11.5899 15.0662L11.7193 15.0635H11.7806C11.7169 15.0562 11.6527 15.0531 11.5886 15.0542L11.5299 11.6675C11.4539 11.3022 11.2086 10.8808 10.4766 10.8941C10.4966 10.8675 9.16185 10.9168 9.16185 10.9168L9.12718 8.98612L11.6233 8.94346V8.95279C11.9979 8.94612 12.3833 8.93279 12.774 8.91812L12.7233 5.94608L14.5313 5.91542L14.582 8.82745C15.0647 8.81012 15.55 8.79145 16.026 8.78345L15.9754 5.89008L17.7848 5.85808L17.8368 8.83012V8.82745Z" fill="black"/>
</svg>
