<svg width="78" height="19" viewBox="0 0 78 19" fill="none" xmlns="http://www.w3.org/2000/svg">
<path d="M14.504 13.608C14.504 14.328 14.36 14.96 14.072 15.504C13.784 16.048 13.384 16.504 12.872 16.872C12.376 17.24 11.792 17.52 11.12 17.712C10.464 17.904 9.76 18 9.008 18H0.776V0.959999H9.896C10.488 0.959999 11.024 1.088 11.504 1.344C11.984 1.6 12.392 1.936 12.728 2.352C13.064 2.752 13.32 3.216 13.496 3.744C13.688 4.256 13.784 4.776 13.784 5.304C13.784 6.136 13.576 6.92 13.16 7.656C12.744 8.376 12.136 8.912 11.336 9.264C12.312 9.552 13.08 10.072 13.64 10.824C14.216 11.56 14.504 12.488 14.504 13.608ZM11.168 12.984C11.168 12.68 11.112 12.392 11 12.12C10.904 11.832 10.768 11.584 10.592 11.376C10.416 11.168 10.208 11.008 9.968 10.896C9.728 10.768 9.464 10.704 9.176 10.704H4.088V15.192H9.008C9.312 15.192 9.592 15.136 9.848 15.024C10.12 14.912 10.352 14.76 10.544 14.568C10.736 14.36 10.888 14.12 11 13.848C11.112 13.576 11.168 13.288 11.168 12.984ZM4.088 3.792V8.088H8.504C9.064 8.088 9.536 7.896 9.92 7.512C10.32 7.128 10.52 6.6 10.52 5.928C10.52 5.272 10.336 4.752 9.968 4.368C9.616 3.984 9.176 3.792 8.648 3.792H4.088ZM16.7765 18V5.424H19.9925V18H16.7765ZM16.7765 3.672V0.48H19.9925V3.672H16.7765ZM30.4297 17.352C29.9977 17.544 29.4697 17.736 28.8457 17.928C28.2217 18.12 27.5657 18.216 26.8777 18.216C26.4297 18.216 26.0057 18.16 25.6057 18.048C25.2217 17.936 24.8777 17.76 24.5737 17.52C24.2857 17.264 24.0537 16.944 23.8777 16.56C23.7017 16.16 23.6137 15.68 23.6137 15.12V7.896H21.9577V5.424H23.6137V1.344H26.8297V5.424H29.4697V7.896H26.8297V14.04C26.8297 14.488 26.9417 14.808 27.1657 15C27.4057 15.176 27.6937 15.264 28.0297 15.264C28.3657 15.264 28.6937 15.208 29.0137 15.096C29.3337 14.984 29.5897 14.888 29.7817 14.808L30.4297 17.352ZM31.0079 11.712C31.0079 10.832 31.1599 10 31.4639 9.216C31.7679 8.432 32.2079 7.744 32.7839 7.152C33.3599 6.56 34.0559 6.088 34.8719 5.736C35.6879 5.384 36.6079 5.208 37.6319 5.208C39.0079 5.208 40.1759 5.504 41.1359 6.096C42.1119 6.688 42.8399 7.464 43.3199 8.424L40.1759 9.384C39.9039 8.92 39.5439 8.568 39.0959 8.328C38.6479 8.072 38.1519 7.944 37.6079 7.944C37.1439 7.944 36.7119 8.04 36.3119 8.232C35.9119 8.408 35.5599 8.664 35.2559 9C34.9679 9.32 34.7359 9.712 34.5599 10.176C34.3999 10.64 34.3199 11.152 34.3199 11.712C34.3199 12.272 34.4079 12.784 34.5839 13.248C34.7599 13.712 34.9919 14.112 35.2799 14.448C35.5839 14.784 35.9359 15.048 36.3359 15.24C36.7359 15.416 37.1599 15.504 37.6079 15.504C38.1839 15.504 38.7119 15.36 39.1919 15.072C39.6879 14.784 40.0319 14.432 40.2239 14.016L43.3679 14.976C42.9359 15.936 42.2239 16.72 41.2319 17.328C40.2399 17.936 39.0479 18.24 37.6559 18.24C36.6319 18.24 35.7119 18.064 34.8959 17.712C34.0799 17.36 33.3839 16.888 32.8079 16.296C32.2319 15.688 31.7839 14.992 31.4639 14.208C31.1599 13.408 31.0079 12.576 31.0079 11.712ZM51.0376 18.24C50.0136 18.24 49.0936 18.064 48.2776 17.712C47.4616 17.36 46.7656 16.888 46.1896 16.296C45.6296 15.688 45.1976 14.992 44.8936 14.208C44.5896 13.424 44.4376 12.6 44.4376 11.736C44.4376 10.856 44.5896 10.024 44.8936 9.24C45.1976 8.456 45.6296 7.768 46.1896 7.176C46.7656 6.568 47.4616 6.088 48.2776 5.736C49.0936 5.384 50.0136 5.208 51.0376 5.208C52.0616 5.208 52.9736 5.384 53.7736 5.736C54.5896 6.088 55.2776 6.568 55.8376 7.176C56.4136 7.768 56.8536 8.456 57.1576 9.24C57.4616 10.024 57.6136 10.856 57.6136 11.736C57.6136 12.6 57.4616 13.424 57.1576 14.208C56.8536 14.992 56.4216 15.688 55.8616 16.296C55.3016 16.888 54.6136 17.36 53.7976 17.712C52.9816 18.064 52.0616 18.24 51.0376 18.24ZM47.7496 11.736C47.7496 12.296 47.8296 12.808 47.9896 13.272C48.1656 13.72 48.3976 14.112 48.6856 14.448C48.9896 14.784 49.3416 15.048 49.7416 15.24C50.1416 15.416 50.5736 15.504 51.0376 15.504C51.5016 15.504 51.9336 15.416 52.3336 15.24C52.7336 15.048 53.0776 14.784 53.3656 14.448C53.6696 14.112 53.9016 13.712 54.0616 13.248C54.2376 12.784 54.3256 12.272 54.3256 11.712C54.3256 11.168 54.2376 10.664 54.0616 10.2C53.9016 9.736 53.6696 9.336 53.3656 9C53.0776 8.664 52.7336 8.408 52.3336 8.232C51.9336 8.04 51.5016 7.944 51.0376 7.944C50.5736 7.944 50.1416 8.04 49.7416 8.232C49.3416 8.424 48.9896 8.688 48.6856 9.024C48.3976 9.36 48.1656 9.76 47.9896 10.224C47.8296 10.688 47.7496 11.192 47.7496 11.736ZM59.7843 18V5.424H63.0003V18H59.7843ZM59.7843 3.672V0.48H63.0003V3.672H59.7843ZM77.5895 18H74.3735V10.944C74.3735 9.936 74.1975 9.2 73.8455 8.736C73.4935 8.272 73.0055 8.04 72.3815 8.04C72.0615 8.04 71.7335 8.104 71.3975 8.232C71.0615 8.36 70.7415 8.544 70.4375 8.784C70.1495 9.008 69.8855 9.28 69.6455 9.6C69.4055 9.92 69.2295 10.272 69.1175 10.656V18H65.9015V5.424H68.8055V7.752C69.2695 6.952 69.9415 6.328 70.8215 5.88C71.7015 5.432 72.6935 5.208 73.7975 5.208C74.5815 5.208 75.2215 5.352 75.7175 5.64C76.2135 5.928 76.5975 6.304 76.8695 6.768C77.1415 7.232 77.3255 7.76 77.4215 8.352C77.5335 8.944 77.5895 9.544 77.5895 10.152V18Z" fill="black"/>
</svg>
