<svg width="14" height="14" viewBox="0 0 14 14" fill="none" xmlns="http://www.w3.org/2000/svg">
<path d="M13.3 2.80077H9.8V1.63185C9.78358 1.18376 9.59014 0.760453 9.2621 0.454738C8.93406 0.149023 8.49817 -0.014159 8.05 0.000964841H5.95C5.50183 -0.014159 5.06594 0.149023 4.7379 0.454738C4.40986 0.760453 4.21642 1.18376 4.2 1.63185V2.80077H0.7C0.514348 2.80077 0.336301 2.87452 0.205025 3.00578C0.0737498 3.13705 0 3.31508 0 3.50072C0 3.68636 0.0737498 3.8644 0.205025 3.99566C0.336301 4.12693 0.514348 4.20068 0.7 4.20068H1.4V11.9001C1.4 12.4571 1.62125 12.9912 2.01508 13.385C2.4089 13.7788 2.94305 14 3.5 14H10.5C11.057 14 11.5911 13.7788 11.9849 13.385C12.3788 12.9912 12.6 12.4571 12.6 11.9001V4.20068H13.3C13.4857 4.20068 13.6637 4.12693 13.795 3.99566C13.9263 3.8644 14 3.68636 14 3.50072C14 3.31508 13.9263 3.13705 13.795 3.00578C13.6637 2.87452 13.4857 2.80077 13.3 2.80077ZM5.6 1.63185C5.6 1.51986 5.747 1.40087 5.95 1.40087H8.05C8.253 1.40087 8.4 1.51986 8.4 1.63185V2.80077H5.6V1.63185ZM11.2 11.9001C11.2 12.0858 11.1263 12.2638 10.995 12.3951C10.8637 12.5264 10.6857 12.6001 10.5 12.6001H3.5C3.31435 12.6001 3.1363 12.5264 3.00503 12.3951C2.87375 12.2638 2.8 12.0858 2.8 11.9001V4.20068H11.2V11.9001Z" fill="black"/>
<path d="M4.9 10.5002C5.08565 10.5002 5.2637 10.4265 5.39497 10.2952C5.52625 10.164 5.6 9.98593 5.6 9.80029V7.00048C5.6 6.81484 5.52625 6.63681 5.39497 6.50554C5.2637 6.37427 5.08565 6.30053 4.9 6.30053C4.71435 6.30053 4.5363 6.37427 4.40503 6.50554C4.27375 6.63681 4.2 6.81484 4.2 7.00048V9.80029C4.2 9.98593 4.27375 10.164 4.40503 10.2952C4.5363 10.4265 4.71435 10.5002 4.9 10.5002ZM9.1 10.5002C9.28565 10.5002 9.4637 10.4265 9.59497 10.2952C9.72625 10.164 9.8 9.98593 9.8 9.80029V7.00048C9.8 6.81484 9.72625 6.63681 9.59497 6.50554C9.4637 6.37427 9.28565 6.30053 9.1 6.30053C8.91435 6.30053 8.7363 6.37427 8.60503 6.50554C8.47375 6.63681 8.4 6.81484 8.4 7.00048V9.80029C8.4 9.98593 8.47375 10.164 8.60503 10.2952C8.7363 10.4265 8.91435 10.5002 9.1 10.5002Z" fill="black"/>
</svg>
