<svg width="103" height="19" viewBox="0 0 103 19" fill="none" xmlns="http://www.w3.org/2000/svg">
<path d="M12.608 15.096V18H0.776V0.959999H12.392V3.864H4.088V7.968H11.264V10.656H4.088V15.096H12.608ZM22.0859 17.352C21.6539 17.544 21.1259 17.736 20.5019 17.928C19.8779 18.12 19.2219 18.216 18.5339 18.216C18.0859 18.216 17.6619 18.16 17.2619 18.048C16.8779 17.936 16.5339 17.76 16.2299 17.52C15.9419 17.264 15.7099 16.944 15.5339 16.56C15.3579 16.16 15.2699 15.68 15.2699 15.12V7.896H13.6139V5.424H15.2699V1.344H18.4859V5.424H21.1259V7.896H18.4859V14.04C18.4859 14.488 18.5979 14.808 18.8219 15C19.0619 15.176 19.3499 15.264 19.6859 15.264C20.0219 15.264 20.3499 15.208 20.6699 15.096C20.9899 14.984 21.2459 14.888 21.4379 14.808L22.0859 17.352ZM35.4489 18H32.2329V10.944C32.2329 9.952 32.0489 9.224 31.6809 8.76C31.3129 8.28 30.7929 8.04 30.1209 8.04C29.8329 8.04 29.5289 8.104 29.2089 8.232C28.8889 8.36 28.5849 8.544 28.2969 8.784C28.0089 9.008 27.7449 9.28 27.5049 9.6C27.2649 9.92 27.0889 10.272 26.9769 10.656V18H23.7609V0.48H26.9769V7.752C27.4409 6.936 28.0649 6.312 28.8489 5.88C29.6489 5.432 30.5289 5.208 31.4889 5.208C32.3049 5.208 32.9689 5.352 33.4809 5.64C33.9929 5.912 34.3929 6.28 34.6809 6.744C34.9689 7.208 35.1689 7.736 35.2809 8.328C35.3929 8.92 35.4489 9.528 35.4489 10.152V18ZM44.0773 18.24C43.0693 18.24 42.1573 18.072 41.3413 17.736C40.5253 17.384 39.8293 16.912 39.2533 16.32C38.6773 15.728 38.2293 15.04 37.9093 14.256C37.6053 13.472 37.4533 12.648 37.4533 11.784C37.4533 10.888 37.6053 10.048 37.9093 9.264C38.2133 8.464 38.6533 7.768 39.2293 7.176C39.8053 6.568 40.5013 6.088 41.3173 5.736C42.1493 5.384 43.0773 5.208 44.1013 5.208C45.1253 5.208 46.0373 5.384 46.8373 5.736C47.6533 6.088 48.3413 6.56 48.9012 7.152C49.4773 7.744 49.9093 8.432 50.1973 9.216C50.5013 10 50.6533 10.816 50.6533 11.664C50.6533 11.872 50.6453 12.072 50.6293 12.264C50.6293 12.456 50.6133 12.616 50.5813 12.744H40.8613C40.9093 13.24 41.0293 13.68 41.2213 14.064C41.4133 14.448 41.6613 14.776 41.9653 15.048C42.2693 15.32 42.6133 15.528 42.9973 15.672C43.3813 15.816 43.7813 15.888 44.1973 15.888C44.8373 15.888 45.4373 15.736 45.9973 15.432C46.5733 15.112 46.9653 14.696 47.1733 14.184L49.9333 14.952C49.4693 15.912 48.7253 16.704 47.7013 17.328C46.6933 17.936 45.4853 18.24 44.0773 18.24ZM47.3413 10.656C47.2613 9.712 46.9093 8.96 46.2853 8.4C45.6773 7.824 44.9333 7.536 44.0533 7.536C43.6213 7.536 43.2133 7.616 42.8293 7.776C42.4613 7.92 42.1333 8.128 41.8453 8.4C41.5573 8.672 41.3173 9 41.1253 9.384C40.9493 9.768 40.8453 10.192 40.8133 10.656H47.3413ZM60.1004 8.208C59.1244 8.224 58.2524 8.416 57.4844 8.784C56.7164 9.136 56.1644 9.672 55.8284 10.392V18H52.6124V5.424H55.5644V8.112C55.7884 7.68 56.0524 7.296 56.3564 6.96C56.6604 6.608 56.9884 6.304 57.3404 6.048C57.6924 5.792 58.0444 5.6 58.3964 5.472C58.7644 5.328 59.1164 5.256 59.4524 5.256C59.6284 5.256 59.7564 5.256 59.8364 5.256C59.9324 5.256 60.0204 5.264 60.1004 5.28V8.208ZM61.8937 18V5.424H65.1097V18H61.8937ZM61.8937 3.672V0.48H65.1097V3.672H61.8937ZM71.8509 18.24C70.5549 18.24 69.5709 17.824 68.8989 16.992C68.2269 16.16 67.8909 14.928 67.8909 13.296V5.424H71.1069V12.6C71.1069 14.536 71.8029 15.504 73.1949 15.504C73.8189 15.504 74.4189 15.32 74.9949 14.952C75.5869 14.568 76.0669 13.992 76.4349 13.224V5.424H79.6509V14.304C79.6509 14.64 79.7069 14.88 79.8189 15.024C79.9469 15.168 80.1469 15.248 80.4189 15.264V18C80.0989 18.064 79.8269 18.104 79.6029 18.12C79.3949 18.136 79.2029 18.144 79.0269 18.144C78.4509 18.144 77.9789 18.016 77.6109 17.76C77.2589 17.488 77.0509 17.12 76.9869 16.656L76.9149 15.648C76.3549 16.512 75.6349 17.16 74.7549 17.592C73.8749 18.024 72.9069 18.24 71.8509 18.24ZM102.383 18H99.1668V10.944C99.1668 9.936 98.9908 9.2 98.6388 8.736C98.3028 8.272 97.8308 8.04 97.2228 8.04C96.5828 8.04 95.9828 8.288 95.4228 8.784C94.8628 9.264 94.4628 9.896 94.2228 10.68V18H91.0068V10.944C91.0068 9.936 90.8308 9.2 90.4788 8.736C90.1428 8.272 89.6708 8.04 89.0628 8.04C88.4388 8.04 87.8388 8.28 87.2628 8.76C86.7028 9.24 86.3028 9.872 86.0628 10.656V18H82.8468V5.424H85.7508V7.752C86.2148 6.936 86.8468 6.312 87.6468 5.88C88.4628 5.432 89.3908 5.208 90.4308 5.208C91.4868 5.208 92.3028 5.464 92.8788 5.976C93.4548 6.488 93.8228 7.12 93.9828 7.872C94.4948 7.008 95.1428 6.352 95.9268 5.904C96.7108 5.44 97.6068 5.208 98.6148 5.208C99.3828 5.208 100.015 5.352 100.511 5.64C101.007 5.928 101.391 6.304 101.663 6.768C101.935 7.232 102.119 7.76 102.215 8.352C102.327 8.944 102.383 9.544 102.383 10.152V18Z" fill="black"/>
</svg>
