<svg width="18" height="17" viewBox="0 0 18 17" fill="none" xmlns="http://www.w3.org/2000/svg">
<path d="M16.5995 0H11.1352C11.0636 0 11.0051 0.0585459 11.0051 0.130102V1.34439C11.0051 1.41594 11.0636 1.47449 11.1352 1.47449H14.6133L10.2917 5.79605C9.20753 4.96122 7.88482 4.5102 6.4949 4.5102C4.82742 4.5102 3.25753 5.16071 2.0801 6.34031C0.902678 7.5199 0.25 9.08763 0.25 10.7551C0.25 12.4226 0.90051 13.9925 2.0801 15.1699C3.25753 16.3495 4.82742 17 6.4949 17C8.16237 17 9.73227 16.3495 10.9097 15.1699C12.0893 13.9925 12.7398 12.4226 12.7398 10.7551C12.7398 9.36518 12.2888 8.04681 11.4561 6.96263L15.7755 2.64324V6.1148C15.7755 6.18635 15.8341 6.2449 15.9056 6.2449H17.1199C17.1915 6.2449 17.25 6.18635 17.25 6.1148V0.65051C17.25 0.29273 16.9573 0 16.5995 0ZM6.4949 15.352C3.96008 15.352 1.89796 13.2899 1.89796 10.7551C1.89796 8.22028 3.96008 6.15816 6.4949 6.15816C9.02972 6.15816 11.0918 8.22028 11.0918 10.7551C11.0918 13.2899 9.02972 15.352 6.4949 15.352Z" fill="white"/>
</svg>
