<svg width="32" height="32" viewBox="0 0 32 32" fill="none" xmlns="http://www.w3.org/2000/svg">
<path fill-rule="evenodd" clip-rule="evenodd" d="M7.27273 2.90909C6.11542 2.90909 5.00551 3.36883 4.18717 4.18717C3.36883 5.00551 2.90909 6.11542 2.90909 7.27273V24.7273C2.90909 25.8846 3.36883 26.9945 4.18717 27.8128C4.86153 28.4872 5.73387 28.918 6.66758 29.0488L18.5979 15.9249C19.0059 15.4762 19.503 15.1173 20.0574 14.8715C20.6117 14.6256 21.2112 14.498 21.8177 14.4967C22.4241 14.4955 23.0241 14.6207 23.5795 14.8643C24.1348 15.1079 24.6333 15.4646 25.0431 15.9116L29.0909 20.3261V7.27273C29.0909 6.11542 28.6312 5.00551 27.8128 4.18717C26.9945 3.36883 25.8846 2.90909 24.7273 2.90909H7.27273ZM32 7.27273C32 5.34388 31.2338 3.49403 29.8699 2.13013C28.506 0.766232 26.6561 0 24.7273 0H7.27273C5.34388 0 3.49403 0.766232 2.13013 2.13013C0.766232 3.49403 0 5.34388 0 7.27273V24.7273C0 26.6561 0.766232 28.506 2.13013 29.8699C3.49403 31.2338 5.34388 32 7.27273 32H24.9207C26.7983 32 28.5989 31.2542 29.9265 29.9265C31.2542 28.5989 32 26.7983 32 24.9207V7.27273ZM22.8988 17.8776C22.7622 17.7286 22.596 17.6096 22.4108 17.5283C22.2257 17.4471 22.0257 17.4054 21.8236 17.4058C21.6214 17.4062 21.4216 17.4488 21.2368 17.5307C21.0521 17.6127 20.8864 17.7322 20.7505 17.8817C20.7504 17.8817 20.7505 17.8816 20.7505 17.8817L10.5607 29.0909H24.7273C25.8846 29.0909 26.9945 28.6312 27.8128 27.8128C28.6312 26.9945 29.0909 25.8846 29.0909 24.7273C29.0909 24.6873 29.089 24.6612 29.0873 24.6461C29.0772 24.6315 29.0576 24.6048 29.0216 24.5618C28.9642 24.4932 28.8968 24.4194 28.7897 24.3022L28.7607 24.2703L22.8988 17.8776ZM10.9091 8.72727C9.70411 8.72727 8.72727 9.70411 8.72727 10.9091C8.72727 12.1141 9.70411 13.0909 10.9091 13.0909C12.1141 13.0909 13.0909 12.1141 13.0909 10.9091C13.0909 9.70411 12.1141 8.72727 10.9091 8.72727ZM5.81818 10.9091C5.81818 8.09746 8.09746 5.81818 10.9091 5.81818C13.7207 5.81818 16 8.09746 16 10.9091C16 13.7207 13.7207 16 10.9091 16C8.09746 16 5.81818 13.7207 5.81818 10.9091Z" fill="#999999"/>
</svg>
