<svg width="34" height="41" viewBox="0 0 34 41" fill="none" xmlns="http://www.w3.org/2000/svg">
<path d="M27.625 14.35V10.25C27.625 4.51 22.95 0 17 0C11.05 0 6.375 4.51 6.375 10.25V14.35C2.7625 14.35 0 17.015 0 20.5V34.85C0 38.335 2.7625 41 6.375 41H27.625C31.2375 41 34 38.335 34 34.85V20.5C34 17.015 31.2375 14.35 27.625 14.35ZM10.625 10.25C10.625 6.765 13.3875 4.1 17 4.1C20.6125 4.1 23.375 6.765 23.375 10.25V14.35H10.625V10.25ZM19.3375 27.675L19.125 27.88V30.75C19.125 31.98 18.275 32.8 17 32.8C15.725 32.8 14.875 31.98 14.875 30.75V27.88C13.6 26.65 13.3875 24.805 14.6625 23.575C15.9375 22.345 17.85 22.14 19.125 23.37C20.4 24.395 20.6125 26.445 19.3375 27.675Z" fill="black"/>
</svg>
