<svg width="101" height="19" viewBox="0 0 101 19" fill="none" xmlns="http://www.w3.org/2000/svg">
<path d="M0.776 18V0.959999H8C8.784 0.959999 9.504 1.128 10.16 1.464C10.832 1.784 11.408 2.216 11.888 2.76C12.368 3.288 12.744 3.896 13.016 4.584C13.288 5.256 13.424 5.936 13.424 6.624C13.424 7.344 13.296 8.048 13.04 8.736C12.784 9.408 12.424 10.008 11.96 10.536C11.496 11.064 10.936 11.488 10.28 11.808C9.624 12.128 8.904 12.288 8.12 12.288H4.088V18H0.776ZM4.088 9.384H7.928C8.536 9.384 9.04 9.136 9.44 8.64C9.856 8.144 10.064 7.472 10.064 6.624C10.064 6.192 10 5.808 9.872 5.472C9.744 5.12 9.576 4.824 9.368 4.584C9.16 4.344 8.912 4.168 8.624 4.056C8.352 3.928 8.072 3.864 7.784 3.864H4.088V9.384ZM15.4171 18V5.424H18.6331V18H15.4171ZM15.4171 3.672V0.48H18.6331V3.672H15.4171ZM30.1263 18L26.4783 12.552L24.7503 14.256V18H21.5343V0.48H24.7503V11.112L29.7903 5.448H33.2223L28.5423 10.776L33.5583 18H30.1263ZM38.1851 18.24C37.5771 18.24 37.0091 18.144 36.4811 17.952C35.9531 17.744 35.4971 17.464 35.1131 17.112C34.7291 16.744 34.4251 16.32 34.2011 15.84C33.9931 15.36 33.8891 14.832 33.8891 14.256C33.8891 13.664 34.0171 13.12 34.2731 12.624C34.5451 12.112 34.9131 11.68 35.3771 11.328C35.8571 10.976 36.4251 10.704 37.0811 10.512C37.7371 10.304 38.4571 10.2 39.2411 10.2C39.8011 10.2 40.3451 10.248 40.8731 10.344C41.4171 10.44 41.8971 10.576 42.3131 10.752V10.032C42.3131 9.2 42.0731 8.56 41.5931 8.112C41.1291 7.664 40.4331 7.44 39.5051 7.44C38.8331 7.44 38.1771 7.56 37.5371 7.8C36.8971 8.04 36.2411 8.392 35.5691 8.856L34.5851 6.816C36.2011 5.744 37.9451 5.208 39.8171 5.208C41.6251 5.208 43.0251 5.656 44.0171 6.552C45.0251 7.432 45.5291 8.712 45.5291 10.392V14.304C45.5291 14.64 45.5851 14.88 45.6971 15.024C45.8251 15.168 46.0251 15.248 46.2971 15.264V18C45.7531 18.112 45.2811 18.168 44.8811 18.168C44.2731 18.168 43.8011 18.032 43.4651 17.76C43.1451 17.488 42.9451 17.128 42.8651 16.68L42.7931 15.984C42.2331 16.72 41.5531 17.28 40.7531 17.664C39.9531 18.048 39.0971 18.24 38.1851 18.24ZM39.0971 15.888C39.6411 15.888 40.1531 15.792 40.6331 15.6C41.1291 15.408 41.5131 15.152 41.7851 14.832C42.1371 14.56 42.3131 14.256 42.3131 13.92V12.48C41.9291 12.336 41.5131 12.224 41.0651 12.144C40.6171 12.048 40.1851 12 39.7691 12C38.9371 12 38.2571 12.192 37.7291 12.576C37.2011 12.944 36.9371 13.416 36.9371 13.992C36.9371 14.536 37.1451 14.992 37.5611 15.36C37.9771 15.712 38.4891 15.888 39.0971 15.888ZM53.5079 11.712C53.5079 10.832 53.6599 10 53.9639 9.216C54.2679 8.432 54.7079 7.744 55.2839 7.152C55.8599 6.56 56.5559 6.088 57.3719 5.736C58.1879 5.384 59.1079 5.208 60.1319 5.208C61.5079 5.208 62.6759 5.504 63.6359 6.096C64.6119 6.688 65.3399 7.464 65.8199 8.424L62.6759 9.384C62.4039 8.92 62.0439 8.568 61.5959 8.328C61.1479 8.072 60.6519 7.944 60.1079 7.944C59.6439 7.944 59.2119 8.04 58.8119 8.232C58.4119 8.408 58.0599 8.664 57.7559 9C57.4679 9.32 57.2359 9.712 57.0599 10.176C56.8999 10.64 56.8199 11.152 56.8199 11.712C56.8199 12.272 56.9079 12.784 57.0839 13.248C57.2599 13.712 57.4919 14.112 57.7799 14.448C58.0839 14.784 58.4359 15.048 58.8359 15.24C59.2359 15.416 59.6599 15.504 60.1079 15.504C60.6839 15.504 61.2119 15.36 61.6919 15.072C62.1879 14.784 62.5319 14.432 62.7239 14.016L65.8679 14.976C65.4359 15.936 64.7239 16.72 63.7319 17.328C62.7399 17.936 61.5479 18.24 60.1559 18.24C59.1319 18.24 58.2119 18.064 57.3959 17.712C56.5799 17.36 55.8839 16.888 55.3079 16.296C54.7319 15.688 54.2839 14.992 53.9639 14.208C53.6599 13.408 53.5079 12.576 53.5079 11.712ZM73.5376 18.24C72.5136 18.24 71.5936 18.064 70.7776 17.712C69.9616 17.36 69.2656 16.888 68.6896 16.296C68.1296 15.688 67.6976 14.992 67.3936 14.208C67.0896 13.424 66.9376 12.6 66.9376 11.736C66.9376 10.856 67.0896 10.024 67.3936 9.24C67.6976 8.456 68.1296 7.768 68.6896 7.176C69.2656 6.568 69.9616 6.088 70.7776 5.736C71.5936 5.384 72.5136 5.208 73.5376 5.208C74.5616 5.208 75.4736 5.384 76.2736 5.736C77.0896 6.088 77.7776 6.568 78.3376 7.176C78.9136 7.768 79.3536 8.456 79.6576 9.24C79.9616 10.024 80.1136 10.856 80.1136 11.736C80.1136 12.6 79.9616 13.424 79.6576 14.208C79.3536 14.992 78.9216 15.688 78.3616 16.296C77.8016 16.888 77.1136 17.36 76.2976 17.712C75.4816 18.064 74.5616 18.24 73.5376 18.24ZM70.2496 11.736C70.2496 12.296 70.3296 12.808 70.4896 13.272C70.6656 13.72 70.8976 14.112 71.1856 14.448C71.4896 14.784 71.8416 15.048 72.2416 15.24C72.6416 15.416 73.0736 15.504 73.5376 15.504C74.0016 15.504 74.4336 15.416 74.8336 15.24C75.2336 15.048 75.5776 14.784 75.8656 14.448C76.1696 14.112 76.4016 13.712 76.5616 13.248C76.7376 12.784 76.8256 12.272 76.8256 11.712C76.8256 11.168 76.7376 10.664 76.5616 10.2C76.4016 9.736 76.1696 9.336 75.8656 9C75.5776 8.664 75.2336 8.408 74.8336 8.232C74.4336 8.04 74.0016 7.944 73.5376 7.944C73.0736 7.944 72.6416 8.04 72.2416 8.232C71.8416 8.424 71.4896 8.688 71.1856 9.024C70.8976 9.36 70.6656 9.76 70.4896 10.224C70.3296 10.688 70.2496 11.192 70.2496 11.736ZM82.2843 18V5.424H85.5003V18H82.2843ZM82.2843 3.672V0.48H85.5003V3.672H82.2843ZM100.09 18H96.8735V10.944C96.8735 9.936 96.6975 9.2 96.3455 8.736C95.9935 8.272 95.5055 8.04 94.8815 8.04C94.5615 8.04 94.2335 8.104 93.8975 8.232C93.5615 8.36 93.2415 8.544 92.9375 8.784C92.6495 9.008 92.3855 9.28 92.1455 9.6C91.9055 9.92 91.7295 10.272 91.6175 10.656V18H88.4015V5.424H91.3055V7.752C91.7695 6.952 92.4415 6.328 93.3215 5.88C94.2015 5.432 95.1935 5.208 96.2975 5.208C97.0815 5.208 97.7215 5.352 98.2175 5.64C98.7135 5.928 99.0975 6.304 99.3695 6.768C99.6415 7.232 99.8255 7.76 99.9215 8.352C100.034 8.944 100.09 9.544 100.09 10.152V18Z" fill="black"/>
</svg>
