<svg width="32" height="32" viewBox="0 0 32 32" fill="none" xmlns="http://www.w3.org/2000/svg">
<path fill-rule="evenodd" clip-rule="evenodd" d="M14.1784 0.0474152C11.9405 0.387964 10.0604 0.983177 8.41725 1.87112C4.12332 4.19156 1.13128 8.28776 0.174967 13.1548C-0.0583223 14.3423 -0.0583223 17.6844 0.174967 18.8718C1.45903 25.4074 6.29761 30.3381 12.8123 31.7494C14.3553 32.0835 17.6447 32.0835 19.1877 31.7494C24.0786 30.6898 28.0875 27.636 30.3186 23.27C30.9559 22.0229 31.5423 20.3109 31.825 18.8718C32.0583 17.6844 32.0583 14.3423 31.825 13.1548C30.5584 6.70767 25.8243 1.80642 19.4479 0.340409C18.3678 0.0921114 15.0845 -0.0904414 14.1784 0.0474152ZM19.0576 2.63122C24.1735 3.83529 28.2129 7.89056 29.4199 13.034C29.7576 14.4731 29.7576 17.5535 29.4199 18.9926C28.2061 24.1652 24.1632 28.2025 18.9834 29.4146C17.5423 29.7518 14.4577 29.7518 13.0166 29.4146C7.83682 28.2025 3.79388 24.1652 2.58007 18.9926C2.24243 17.5535 2.24243 14.4731 2.58007 13.034C3.38676 9.59655 5.57458 6.44222 8.45108 4.56992C10.1432 3.46849 11.8798 2.81325 14.2435 2.38435C14.9866 2.24948 18.1178 2.41008 19.0576 2.63122ZM15.718 5.21905C13.9613 5.55154 7.78933 7.49739 7.82043 7.70905C7.83982 7.84132 9.72461 13.7799 9.76846 13.8468C9.78368 13.8701 10.0431 13.6217 10.345 13.2946C10.6468 12.9676 10.9341 12.7001 10.9836 12.7001C11.0329 12.7001 11.2966 13.4455 11.5696 14.3567C11.8424 15.2679 12.0959 16.0654 12.1328 16.1292C12.1697 16.1929 12.4258 15.6959 12.7019 15.0248C12.978 14.3536 13.2562 13.6834 13.32 13.5355C13.4324 13.2749 13.4719 13.2714 14.5879 13.4229C15.2214 13.509 15.7659 13.5552 15.7979 13.5255C15.8299 13.4959 15.7346 12.9732 15.586 12.3639L15.3159 11.2563L15.6164 11.0596C16.1157 10.7329 17.2113 10.3613 17.6753 10.3613C18.09 10.3613 18.7974 10.7705 18.7974 11.0105C18.7974 11.2811 18.0538 11.9597 17.2894 12.3867C16.8306 12.6428 16.456 12.862 16.457 12.8737C16.4577 12.8854 16.5449 13.2166 16.6506 13.6096C16.9524 14.7326 17.0345 14.6693 15.3342 14.6242L13.8226 14.5841L13.1658 16.2732C12.8046 17.2022 12.4918 17.9842 12.4709 18.011C12.4498 18.0379 11.6384 17.9566 10.6675 17.8303C9.69676 17.704 8.87472 17.6282 8.84102 17.662C8.80719 17.6958 9.6723 18.2693 10.7634 18.9365C11.8545 19.6037 12.8694 20.228 13.0186 20.3238C13.2791 20.4909 13.32 20.4307 14.0347 18.8264L14.7793 17.155L15.845 17.0722C16.4312 17.0266 17.6653 16.989 18.5874 16.9886L20.264 16.9878L20.1882 16.4356C20.1465 16.1318 20.0729 15.4987 20.0247 15.0283L19.9369 14.1732L20.8966 13.2093C22.2249 11.8751 22.7339 10.8895 22.8034 9.51677C22.8984 7.64304 22.0658 6.2086 20.4639 5.48567C19.7389 5.1585 19.4685 5.11095 18.1468 5.07886C17.2694 5.05755 16.2649 5.1155 15.718 5.21905ZM14.9654 18.7038C14.8662 18.9391 14.5754 19.6268 14.3192 20.2322C14.0629 20.8374 13.8532 21.4309 13.8532 21.5512C13.8532 21.7166 15.3658 26.577 15.7409 27.6167C15.7802 27.7255 16.3612 27.332 17.3709 26.5125C18.6364 25.4853 18.9258 25.1889 18.8683 24.9789C18.8291 24.8357 18.4254 23.2862 17.9711 21.5354L17.1451 18.3521L16.1453 18.314L15.1457 18.2761L14.9654 18.7038Z" fill="black"/>
</svg>
