<svg width="41" height="41" viewBox="0 0 41 41" fill="none" xmlns="http://www.w3.org/2000/svg">
<path d="M40.947 6.56755C40.9414 6.39102 40.8896 6.21898 40.7966 6.06833C40.7037 5.91768 40.5728 5.79361 40.4169 5.70831C40.2609 5.62301 40.0853 5.57941 39.9073 5.58181C39.7292 5.58421 39.5548 5.63251 39.4013 5.72198C38.0107 6.52651 35.8463 7.565 33.9322 7.565C33.061 7.565 32.1753 7.43365 31.2649 7.15863C30.6922 6.98946 30.1332 6.77746 29.5929 6.52445C26.8242 5.213 24.281 2.89793 21.9448 0.595184C21.5594 0.21849 21.0415 0.00507608 20.5004 0C19.9594 0.00507608 19.4415 0.21849 19.0561 0.595184C16.7198 2.89793 14.1767 5.213 11.408 6.52445C10.8685 6.77778 10.3081 6.98979 9.73599 7.15863C8.82551 7.43365 7.93778 7.565 7.06868 7.565C5.15459 7.565 2.99012 6.52445 1.59956 5.72198C1.44602 5.63251 1.27165 5.58421 1.09359 5.58181C0.915528 5.57941 0.739902 5.62301 0.583969 5.70831C0.428037 5.79361 0.297163 5.91768 0.20421 6.06833C0.111257 6.21898 0.0594231 6.39102 0.0538017 6.56755C-0.0724248 9.72408 -0.105534 16.501 1.47747 21.8453C4.3724 31.6207 10.7479 38.2149 19.9148 40.9159L20.2045 41L20.4942 40.9713H20.5004L20.7963 41L21.086 40.9159C30.253 38.2149 36.6284 31.6207 39.5234 21.8453C41.1064 16.501 41.0712 9.72408 40.947 6.56755Z" fill="black"/>
</svg>
