<svg width="23" height="23" viewBox="0 0 23 23" fill="none" xmlns="http://www.w3.org/2000/svg">
<path fill-rule="evenodd" clip-rule="evenodd" d="M22.9029 0.78839C22.8391 0.634607 22.7457 0.494824 22.6282 0.376945L22.6231 0.371834C22.3839 0.133394 22.0599 -0.000348191 21.7222 6.80823e-07H14.0556C13.7167 6.80823e-07 13.3917 0.134623 13.152 0.374253C12.9124 0.613883 12.7778 0.938891 12.7778 1.27778C12.7778 1.61667 12.9124 1.94167 13.152 2.1813C13.3917 2.42093 13.7167 2.55556 14.0556 2.55556H18.6377L9.31883 11.8744C9.19679 11.9923 9.09945 12.1333 9.03248 12.2892C8.96551 12.445 8.93026 12.6127 8.92879 12.7824C8.92732 12.952 8.95965 13.1203 9.0239 13.2773C9.08814 13.4344 9.18302 13.577 9.303 13.697C9.42297 13.817 9.56564 13.9119 9.72267 13.9761C9.8797 14.0404 10.048 14.0727 10.2176 14.0712C10.3873 14.0697 10.555 14.0345 10.7108 13.9675C10.8667 13.9006 11.0077 13.8032 11.1256 13.6812L20.4444 4.36233V8.94445C20.4444 9.28333 20.5791 9.60834 20.8187 9.84797C21.0583 10.0876 21.3833 10.2222 21.7222 10.2222C22.0611 10.2222 22.3861 10.0876 22.6257 9.84797C22.8654 9.60834 23 9.28333 23 8.94445V1.27395C23 1.10783 22.9668 0.944279 22.9029 0.78839ZM0 6.38889C0 4.69445 0.673113 3.06941 1.87126 1.87126C3.06941 0.673114 4.69445 6.80823e-07 6.38889 6.80823e-07H7.66667C8.00555 6.80823e-07 8.33056 0.134623 8.57019 0.374253C8.80982 0.613883 8.94444 0.938891 8.94444 1.27778C8.94444 1.61667 8.80982 1.94167 8.57019 2.1813C8.33056 2.42093 8.00555 2.55556 7.66667 2.55556H6.38889C5.37223 2.55556 4.3972 2.95942 3.67831 3.67831C2.95942 4.3972 2.55556 5.37223 2.55556 6.38889V16.6111C2.55556 17.6278 2.95942 18.6028 3.67831 19.3217C4.3972 20.0406 5.37223 20.4444 6.38889 20.4444H16.6111C17.6278 20.4444 18.6028 20.0406 19.3217 19.3217C20.0406 18.6028 20.4444 17.6278 20.4444 16.6111V15.3333C20.4444 14.9944 20.5791 14.6694 20.8187 14.4298C21.0583 14.1902 21.3833 14.0556 21.7222 14.0556C22.0611 14.0556 22.3861 14.1902 22.6257 14.4298C22.8654 14.6694 23 14.9944 23 15.3333V16.6111C23 18.3056 22.3269 19.9306 21.1287 21.1287C19.9306 22.3269 18.3055 23 16.6111 23H6.38889C4.69445 23 3.06941 22.3269 1.87126 21.1287C0.673113 19.9306 0 18.3056 0 16.6111V6.38889Z" fill="#5D34FF"/>
</svg>
