<svg width="40" height="40" viewBox="0 0 40 40" fill="none" xmlns="http://www.w3.org/2000/svg">
<circle cx="20" cy="20" r="20" fill="white"/>
<path d="M19 22.986C19 23.2512 19.1054 23.5056 19.2929 23.6931C19.4804 23.8806 19.7348 23.986 20 23.986C20.2652 23.986 20.5196 23.8806 20.7071 23.6931C20.8946 23.5056 21 23.2512 21 22.986V15.828L24.243 19.071L25.657 17.657L20 12L14.343 17.657L15.757 19.071L19 15.83V22.987V22.986Z" fill="#4B4B4B"/>
<path d="M12 22H14V26H26V22H28V26C28 26.5304 27.7893 27.0391 27.4142 27.4142C27.0391 27.7893 26.5304 28 26 28H14C13.4696 28 12.9609 27.7893 12.5858 27.4142C12.2107 27.0391 12 26.5304 12 26V22Z" fill="#4B4B4B"/>
</svg>
