<svg width="31" height="24" viewBox="0 0 31 24" fill="none" xmlns="http://www.w3.org/2000/svg">
<path d="M28.5007 10.5171C29.1664 11.4029 29.1664 12.5986 28.5007 13.4829C26.404 16.2671 21.3734 22 15.5002 22C9.62702 22 4.59646 16.2671 2.49969 13.4829C2.17581 13.0588 2 12.537 2 12C2 11.463 2.17581 10.9412 2.49969 10.5171C4.59646 7.73286 9.62702 2 15.5002 2C21.3734 2 26.404 7.73286 28.5007 10.5171Z" stroke="#5D34FF" stroke-width="3" stroke-linecap="round" stroke-linejoin="round"/>
<path d="M15.5002 16.2857C17.8271 16.2857 19.7134 14.3669 19.7134 12C19.7134 9.63307 17.8271 7.71429 15.5002 7.71429C13.1733 7.71429 11.287 9.63307 11.287 12C11.287 14.3669 13.1733 16.2857 15.5002 16.2857Z" stroke="#5D34FF" stroke-width="3" stroke-linecap="round" stroke-linejoin="round"/>
</svg>
